<svg width="238" height="202" viewBox="0 0 238 202" fill="none" xmlns="http://www.w3.org/2000/svg">
<path d="M90.2717 154.271L89.8359 154.516L89.9793 154.771H90.2717V154.271ZM149.137 154.271V154.771H149.43L149.573 154.516L149.137 154.271ZM178.57 101.934L179.006 102.179L179.143 101.934L179.006 101.689L178.57 101.934ZM149.137 49.598L149.573 49.3529L149.43 49.098H149.137V49.598ZM90.2717 49.598V49.098H89.9793L89.8359 49.3527L90.2717 49.598ZM60.8128 101.934L60.3771 101.689L60.2391 101.934L60.3771 102.18L60.8128 101.934ZM177.642 201V201.5H177.928L178.073 201.254L177.642 201ZM59.8972 201L59.4664 201.254L59.6114 201.5H59.8972V201ZM1 101L0.569172 100.746L0.419722 101L0.569172 101.254L1 101ZM59.8972 1V0.5H59.6114L59.4664 0.746254L59.8972 1ZM177.642 1L178.073 0.746334L177.928 0.5H177.642V1ZM236.514 101L236.945 101.254L237.094 101L236.945 100.746L236.514 101ZM90.2717 154.771H149.137V153.771H90.2717V154.771ZM149.573 154.516L179.006 102.179L178.134 101.689L148.701 154.026L149.573 154.516ZM179.006 101.689L149.573 49.3529L148.701 49.8431L178.134 102.179L179.006 101.689ZM149.137 49.098H90.2717V50.098H149.137V49.098ZM89.8359 49.3527L60.3771 101.689L61.2485 102.18L90.7074 49.8432L89.8359 49.3527ZM60.3771 102.18L89.8359 154.516L90.7074 154.026L61.2485 101.689L60.3771 102.18ZM177.642 200.5H59.8972V201.5H177.642V200.5ZM60.328 200.746L1.43083 100.746L0.569172 101.254L59.4664 201.254L60.328 200.746ZM1.43083 101.254L60.328 1.25375L59.4664 0.746254L0.569172 100.746L1.43083 101.254ZM59.8972 1.5H177.642V0.5H59.8972V1.5ZM177.211 1.25367L236.083 101.254L236.945 100.746L178.073 0.746334L177.211 1.25367ZM236.083 100.746L177.211 200.746L178.073 201.254L236.945 101.254L236.083 100.746Z" fill="#EAEAEA"/>
</svg>
