<svg width="67" height="52" viewBox="0 0 67 52" fill="none" xmlns="http://www.w3.org/2000/svg">
<path fill-rule="evenodd" clip-rule="evenodd" d="M9.89806 31.8125C9.10912 32.7491 7.9689 33.2867 6.76908 33.2867C4.48352 33.2867 2.62389 31.3636 2.62389 28.9998C2.62389 26.6364 4.48352 24.7133 6.76908 24.7133C7.87649 24.7133 8.91768 25.1591 9.7003 25.9687L9.83274 26.106L11.6882 24.1873L11.5557 24.0503C10.2776 22.7281 8.57753 22 6.76908 22C3.03657 22 0 25.1401 0 28.9998C0 32.8596 3.03657 36 6.76908 36C8.72804 36 10.5901 35.1232 11.8769 33.5939L12 33.4479L10.0209 31.6662L9.89806 31.8125Z" fill="white"/>
<mask id="mask0" mask-type="alpha" maskUnits="userSpaceOnUse" x="0" y="0" width="67" height="52">
<path fill-rule="evenodd" clip-rule="evenodd" d="M0 52H67V0H0V52Z" fill="white"/>
</mask>
<g mask="url(#mask0)">
<path fill-rule="evenodd" clip-rule="evenodd" d="M55 31H67V28H55V31Z" fill="white"/>
<path fill-rule="evenodd" clip-rule="evenodd" d="M55 25H67V22H55V25Z" fill="white"/>
<path fill-rule="evenodd" clip-rule="evenodd" d="M55 37H67V34H55V37Z" fill="white"/>
<path fill-rule="evenodd" clip-rule="evenodd" d="M29.2864 28.9998C29.2864 31.3636 27.3637 33.2863 25 33.2863C22.6363 33.2863 20.7136 31.3636 20.7136 28.9998C20.7136 26.6364 22.6363 24.7133 25 24.7133C27.3637 24.7133 29.2864 26.6364 29.2864 28.9998ZM25 22C21.1403 22 18 25.1401 18 28.9998C18 32.8596 21.1403 36 25 36C28.8597 36 32 32.8596 32 28.9998C32 25.1401 28.8597 22 25 22Z" fill="white"/>
<path fill-rule="evenodd" clip-rule="evenodd" d="M44.8769 11.5939L45 11.448L43.0209 9.66628L42.8981 9.81258C42.1095 10.7492 40.9693 11.2867 39.7692 11.2867C37.4834 11.2867 35.6241 9.36373 35.6241 7.00031C35.6241 4.63658 37.4834 2.71359 39.7692 2.71359C40.8766 2.71359 41.9178 3.15963 42.701 3.96923L42.8331 4.10619L44.6885 2.18725L44.556 2.05029C43.2774 0.728045 41.577 0 39.7692 0C36.0368 0 33 3.14034 33 7.00031C33 10.86 36.0368 14 39.7692 14C41.7284 14 43.5904 13.1232 44.8769 11.5939Z" fill="white"/>
<path fill-rule="evenodd" clip-rule="evenodd" d="M40 8H49V5H40V8Z" fill="white"/>
<path fill-rule="evenodd" clip-rule="evenodd" d="M2.78899 8.35198H9.21069V14H12V0H9.21069V5.64771H2.78899V0H0V14H2.78899V8.35198Z" fill="white"/>
<path fill-rule="evenodd" clip-rule="evenodd" d="M64.2109 0V5.64802H57.7891V0H55V14H57.7891V8.35198H64.2109V14H67V0H64.2109Z" fill="white"/>
<path fill-rule="evenodd" clip-rule="evenodd" d="M22 14H25V0H22V14Z" fill="white"/>
<path fill-rule="evenodd" clip-rule="evenodd" d="M45.7855 31.8271C45.5479 31.0891 45.2273 30.0936 44.5237 29.2878C45.2688 28.4822 45.6769 27.4419 45.6769 26.3388C45.6769 24.1104 43.9897 22.2509 41.803 22.0274V22H39V24.7133H41.3636C42.2551 24.7133 42.9797 25.4423 42.9797 26.3388C42.9797 27.2125 42.2712 27.94 41.4048 27.9599H39V30.6732L41.3636 30.6776C42.4608 30.6776 42.7096 31.0794 43.2192 32.6635C43.6211 33.9114 44.2935 36 46.7521 36H48V33.2863H46.7521C46.3904 33.2863 46.2552 33.2863 45.7855 31.8271Z" fill="white"/>
<path fill-rule="evenodd" clip-rule="evenodd" d="M3.64316 47.4424C3.64316 46.7787 3.17871 46.3267 2.51911 46.3267C1.85895 46.3267 1.3945 46.7787 1.3945 47.4424C1.3945 48.106 1.85895 48.5577 2.51911 48.5577C3.17871 48.5577 3.64316 48.106 3.64316 47.4424ZM5 45.1346V49.702C5 51.3172 3.78238 52 2.54593 52C1.57994 52 0.771996 51.6251 0.344346 50.8365L1.53372 50.1253C1.71003 50.4616 1.97935 50.7308 2.593 50.7308C3.24375 50.7308 3.64316 50.3848 3.64316 49.702V49.2598C3.33619 49.6539 2.89028 49.8847 2.2866 49.8847C0.966849 49.8847 0 48.7691 0 47.4424C0 46.1151 0.966849 45 2.2866 45C2.89028 45 3.33619 45.2306 3.64316 45.6247V45.1346H5Z" fill="white"/>
<path fill-rule="evenodd" clip-rule="evenodd" d="M18.6061 47.4999C18.6061 46.7896 18.1416 46.3448 17.5 46.3448C16.8592 46.3448 16.3945 46.7896 16.3945 47.4999C16.3945 48.2104 16.8592 48.6552 17.5 48.6552C18.1416 48.6552 18.6061 48.2104 18.6061 47.4999ZM20 45.1326V49.8671H18.6061V49.4223C18.2991 49.782 17.8435 50 17.2216 50C16.0042 50 15 48.9107 15 47.4999C15 46.089 16.0042 45 17.2216 45C17.8435 45 18.2991 45.218 18.6061 45.5776V45.1326H20Z" fill="white"/>
<path fill-rule="evenodd" clip-rule="evenodd" d="M38 47.0135V50H36.4V47.1404C36.4 46.6536 36.1439 46.3421 35.6324 46.3421C35.0993 46.3421 34.8003 46.6829 34.8003 47.2566V50H33.2007V47.1404C33.2007 46.6536 32.9446 46.3421 32.4327 46.3421C31.8996 46.3421 31.6007 46.6829 31.6007 47.2566V50H30V45.1362H31.6007V45.5839C31.8456 45.2533 32.3149 45 33.0294 45C33.6591 45 34.128 45.2335 34.427 45.6421C34.7257 45.2533 35.2162 45 35.974 45C37.2 45 38 45.7977 38 47.0135Z" fill="white"/>
<path fill-rule="evenodd" clip-rule="evenodd" d="M51.5673 47.0075C51.4132 46.4583 50.9808 46.2594 50.5481 46.2594C50 46.2594 49.6343 46.5243 49.4997 47.0075H51.5673ZM50.6827 48.7307C51.0764 48.7307 51.4132 48.5798 51.6057 48.371L52.7594 49.0246C52.2881 49.6683 51.5764 50 50.6632 50C49.0192 50 48 48.9109 48 47.4997C48 46.0891 49.039 45 50.5573 45C51.961 45 53 46.0699 53 47.4997C53 47.6986 52.9802 47.8881 52.9419 48.0681H49.5289C49.7119 48.5603 50.1535 48.7307 50.6827 48.7307Z" fill="white"/>
<path fill-rule="evenodd" clip-rule="evenodd" d="M67 48.4469C67 49.5357 66.0538 50 65.0327 50C64.087 50 63.3687 49.6398 63 48.8728L64.2287 48.1722C64.3521 48.5321 64.6169 48.7307 65.0327 48.7307C65.3729 48.7307 65.5431 48.6266 65.5431 48.4373C65.5431 47.9166 63.2172 48.1911 63.2172 46.5528C63.2172 45.5207 64.087 45 65.0704 45C65.8366 45 66.5175 45.3407 66.9146 46.0132L65.7042 46.6665C65.5718 46.4202 65.3822 46.2499 65.0704 46.2499C64.8248 46.2499 64.6729 46.3446 64.6729 46.515C64.6729 47.0549 67 46.6953 67 48.4469Z" fill="white"/>
</g>
</svg>
